<svg width="30" height="26" viewBox="0 0 30 26" fill="none" xmlns="http://www.w3.org/2000/svg">
<path d="M15.6312 16.4282C12.8815 17.5797 0.5 26 0.5 26L22.1824 26C19.7264 19.0029 29.5 15.0526 29.5 15.0526C29.5 15.0526 18.3293 15.2982 15.6312 16.4282Z" fill="#F89C1C"/>
<path opacity="0.800003" d="M13.1159 10.6954C9.15119 13.3291 0.5 26 0.5 26L22.4091 26C17.0033 14.8129 28.783 7.5753 28.8556 7.52632C28.8556 7.52632 17.2119 7.97535 13.1159 10.6954Z" fill="#E31E26"/>
<path d="M10.256 5.35067C5.6375 8.95267 0.5 25.98 0.5 26L22.5829 26C15.9192 13.864 26.9222 0 26.9222 0C26.9222 0 14.8467 1.77 10.256 5.35067Z" fill="url(#paint0_linear_25280_165632)"/>
<defs>
<linearGradient id="paint0_linear_25280_165632" x1="16.1696" y1="26.9995" x2="16.1696" y2="-0.875733" gradientUnits="userSpaceOnUse">
<stop stop-color="#0FB6E9"/>
<stop offset="1" stop-color="#57BFA0"/>
</linearGradient>
</defs>
</svg>
