<svg width="178" height="36" viewBox="0 0 178 36" fill="none" xmlns="http://www.w3.org/2000/svg">
<path d="M61.7649 20.7774H55.1677V26.83H62.5188V28.5993H53V11.8381H62.1418V13.6073H55.1677V18.915H61.7649V20.7774Z" fill="black"/>
<path d="M64.9691 26.3641C65.6288 26.8297 66.7598 27.2021 67.8907 27.2021C69.4929 27.2021 70.2469 26.3641 70.2469 25.4329C70.2469 24.4086 69.5872 23.8499 67.985 23.1981C65.8173 22.4531 64.7806 21.2426 64.7806 19.7527C64.7806 17.7973 66.3828 16.2143 69.0217 16.2143C70.2469 16.2143 71.3778 16.5867 72.0375 16.9592L71.4721 18.5422C71.0008 18.2629 70.1526 17.8904 69.0217 17.8904C67.7022 17.8904 66.9483 18.6353 66.9483 19.5665C66.9483 20.5908 67.7022 20.9633 69.3044 21.6151C71.3778 22.4531 72.5088 23.4774 72.5088 25.2467C72.5088 27.3884 70.8123 28.8782 67.985 28.8782C66.6655 28.8782 65.4403 28.5989 64.5921 28.0402L64.9691 26.3641Z" fill="black"/>
<path d="M74.9583 26.3642C75.6181 26.8298 76.749 27.2022 77.88 27.2022C79.4821 27.2022 80.2361 26.3642 80.2361 25.433C80.2361 24.4087 79.5764 23.85 77.9742 23.1982C75.8066 22.4533 74.7699 21.2427 74.7699 19.7529C74.7699 17.7974 76.372 16.2144 79.0109 16.2144C80.2361 16.2144 81.3671 16.5869 82.0268 16.9593L81.4613 18.5423C80.9901 18.263 80.1419 17.8905 79.0109 17.8905C77.6915 17.8905 76.9375 18.6354 76.9375 19.5666C76.9375 20.5909 77.6915 20.9634 79.2937 21.6152C81.3671 22.4533 82.498 23.4775 82.498 25.2468C82.498 27.3885 80.8016 28.8784 77.9742 28.8784C76.6548 28.8784 75.4296 28.599 74.5814 28.0403L74.9583 26.3642Z" fill="black"/>
<path d="M91.9235 28.5991L91.735 27.1092H91.6407C90.981 28.0404 89.6616 28.8784 87.8709 28.8784C85.4205 28.8784 84.1011 27.2023 84.1011 25.4331C84.1011 22.5465 86.7399 20.9635 91.4522 20.9635V20.6841C91.4522 19.6598 91.1695 17.8906 88.7191 17.8906C87.5882 17.8906 86.363 18.2631 85.5148 18.8218L85.0435 17.425C86.0802 16.7732 87.4939 16.4007 89.0018 16.4007C92.7717 16.4007 93.6199 18.9149 93.6199 21.3359V25.8056C93.6199 26.8299 93.7141 27.8542 93.8084 28.6922H91.9235V28.5991ZM91.6407 22.4533C89.1903 22.3602 86.4572 22.8258 86.4572 25.1537C86.4572 26.5505 87.3997 27.2023 88.5306 27.2023C90.1328 27.2023 91.0752 26.178 91.4522 25.1537C91.5465 24.9675 91.5465 24.6882 91.5465 24.5019V22.4533H91.6407Z" fill="black"/>
<path d="M97.9546 16.587L100.594 23.664C100.876 24.502 101.159 25.4332 101.347 26.085H101.442C101.63 25.3401 101.913 24.4089 102.196 23.5708L104.646 16.4939H107.002L103.704 25.0607C102.101 29.1579 101.065 31.2996 99.5568 32.6032C98.5201 33.5344 97.3892 33.9069 96.8237 34L96.2582 32.1376C96.8237 31.9514 97.5777 31.5789 98.2374 31.1134C98.8029 30.6478 99.5568 29.8097 100.122 28.6923C100.217 28.5061 100.311 28.3198 100.311 28.1336C100.311 27.9474 100.217 27.8542 100.122 27.5749L95.5985 16.4939H97.9546V16.587Z" fill="black"/>
<path d="M108.793 25.9918C109.736 26.5505 111.244 27.1092 112.752 27.1092C115.013 27.1092 116.333 25.8987 116.333 24.2226C116.333 22.6396 115.39 21.8015 113.129 20.8703C110.395 19.9392 108.605 18.4493 108.605 16.1213C108.605 13.514 110.772 11.5586 114.071 11.5586C115.767 11.5586 117.087 11.9311 117.841 12.3966L117.275 14.1659C116.71 13.8865 115.579 13.3278 114.071 13.3278C111.715 13.3278 110.867 14.7246 110.867 15.842C110.867 17.425 111.903 18.1699 114.259 19.1011C117.087 20.2185 118.595 21.5221 118.595 24.0363C118.595 26.6436 116.616 28.8784 112.657 28.8784C111.055 28.8784 109.264 28.4128 108.322 27.8541L108.793 25.9918Z" fill="black"/>
<path d="M121.422 11H123.59V18.5425H123.684C124.061 17.8907 124.626 17.332 125.286 16.9595C125.946 16.587 126.7 16.3077 127.548 16.3077C129.15 16.3077 131.789 17.332 131.789 21.4292V28.5992H129.622V21.7085C129.622 19.753 128.868 18.17 126.794 18.17C125.38 18.17 124.25 19.1943 123.873 20.3117C123.778 20.5911 123.684 20.9636 123.684 21.336V28.5992H121.516V11H121.422Z" fill="black"/>
<path d="M142.062 28.5991L141.873 27.1092H141.779C141.12 28.0404 139.8 28.8784 138.009 28.8784C135.559 28.8784 134.24 27.2023 134.24 25.4331C134.24 22.5465 136.878 20.9635 141.591 20.9635V20.6841C141.591 19.6598 141.308 17.8906 138.858 17.8906C137.727 17.8906 136.501 18.2631 135.653 18.8218L135.182 17.425C136.219 16.7732 137.632 16.4007 139.14 16.4007C142.91 16.4007 143.758 18.9149 143.758 21.3359V25.8056C143.758 26.8299 143.853 27.8542 143.947 28.6922H142.062V28.5991ZM141.779 22.4533C139.329 22.3602 136.596 22.8258 136.596 25.1537C136.596 26.5505 137.538 27.2023 138.669 27.2023C140.271 27.2023 141.214 26.178 141.591 25.1537C141.685 24.9675 141.685 24.6882 141.685 24.5019V22.4533H141.779Z" fill="black"/>
<path d="M147.717 16.5868H149.507V18.9148H149.602C150.167 17.3318 151.487 16.3075 152.994 16.3075C153.277 16.3075 153.466 16.3075 153.654 16.4006V18.4492C153.466 18.3561 153.183 18.3561 152.9 18.3561C151.298 18.3561 150.261 19.5666 149.979 21.1496C149.884 21.4289 149.884 21.8014 149.884 22.1739V28.599H147.717V16.5868Z" fill="black"/>
<path d="M157.989 22.081C158.366 21.6154 158.743 21.1498 159.12 20.6842L162.701 16.4939H165.34L160.628 21.4292L166 28.5061H163.267L159.026 22.7328L157.895 23.9433V28.5061H155.727V11H157.895V22.081H157.989Z" fill="black"/>
<g clip-path="url(#clip0_27982_22953)">
<path d="M24.0012 22.0105C19.6397 23.6935 0 36 0 36H34.3927C30.497 25.7734 46 20 46 20C46 20 28.2809 20.3589 24.0012 22.0105Z" fill="#F89C1C"/>
<path d="M14.1466 15.5C7.08156 18.9635 0 35.9808 0 36H33.7808C26.2723 19.5 43.9556 11 43.9556 11C43.9556 11 21.1692 12.0571 14.1466 15.5Z" fill="#E4666B"/>
<path d="M15.0976 7.40862C7.95038 12.396 0 35.9723 0 36H34.1737C23.8614 19.1963 40.8889 0 40.8889 0C40.8889 0 22.2018 2.45077 15.0976 7.40862Z" fill="url(#paint0_linear_27982_22953)"/>
</g>
<path d="M169.238 24.7344V29H168.436V24.7344H169.238ZM170.562 24.7344V25.3701H167.126V24.7344H170.562Z" fill="black"/>
<path d="M171.45 24.7344H172.147L173.313 27.9453L174.477 24.7344H175.177L173.592 29H173.032L171.45 24.7344ZM171.099 24.7344H171.781L171.904 27.6846V29H171.099V24.7344ZM174.843 24.7344H175.528V29H174.723V27.6846L174.843 24.7344Z" fill="black"/>
<defs>
<linearGradient id="paint0_linear_27982_22953" x1="24.249" y1="37.3839" x2="24.249" y2="-1.21255" gradientUnits="userSpaceOnUse">
<stop stop-color="#0FB6E9"/>
<stop offset="1" stop-color="#57BFA0"/>
</linearGradient>
<clipPath id="clip0_27982_22953">
<rect width="46" height="36" fill="white" transform="matrix(1 0 0 -1 0 36)"/>
</clipPath>
</defs>
</svg>
