<svg width="32" height="32" viewBox="0 0 32 32" fill="none" xmlns="http://www.w3.org/2000/svg">
<path fill-rule="evenodd" clip-rule="evenodd" d="M26.1309 6.05543L24.7194 6.75947C27.4711 8.9691 28.8164 11.8232 29.0664 15.2769C28.8574 21.9433 25.6943 26.2279 20.2609 28.0653C13.9834 29.9461 10.0056 28.4243 6.15646 24.5244L5.91399 26.0237L7.47893 27.6452C12.9225 33.2861 21.9477 33.4713 27.6206 28.0584C33.2934 22.645 33.4797 13.6708 28.0358 8.02954L26.1309 6.05543Z" fill="#FEEF7C"/>
<path fill-rule="evenodd" clip-rule="evenodd" d="M5.13931 25.1883L6.08502 24.367C2.15582 18.8302 1.99117 10.7242 7.36843 6.26162C11.3544 2.95375 19.2633 1.23919 25.5909 6.77904L26.0631 5.95291L24.5213 4.35484C19.0774 -1.28613 10.0524 -1.47136 4.37932 3.94192C-1.2935 9.35493 -1.4795 18.3295 3.96406 23.9705L5.13931 25.1883Z" fill="#5CD3CB"/>
<path d="M1.73987 16.0403C1.73987 23.878 8.13054 30.2327 16.0125 30.2327C23.8959 30.2327 30.2863 23.878 30.2863 16.0403C30.2863 8.20108 23.8959 1.84627 16.0125 1.84627C8.13054 1.84627 1.73987 8.20108 1.73987 16.0403ZM11.6743 18.6072C11.8243 18.1351 11.6574 17.6204 11.2584 17.324C10.202 16.5394 8.11931 14.9928 6.71986 13.9535C6.51785 13.8035 6.43524 13.5417 6.51476 13.3037C6.59427 13.0656 6.81791 12.9053 7.07021 12.9053H12.4944C12.9993 12.9053 13.4471 12.5834 13.6059 12.1071C14.0335 10.8228 14.8834 8.27036 15.447 6.57843C15.5262 6.34067 15.7496 6.17974 16.0016 6.17947C16.2535 6.17919 16.4778 6.33927 16.5577 6.57674C17.1271 8.27007 17.9871 10.8267 18.4189 12.1104C18.5789 12.5851 19.0258 12.9053 19.5293 12.9053C20.8124 12.9053 23.2843 12.9053 24.9673 12.9053C25.2187 12.9053 25.4424 13.0651 25.5222 13.3026C25.6019 13.54 25.5204 13.8015 25.3193 13.9521C23.9241 14.9973 21.8402 16.5579 20.786 17.3475C20.3893 17.6445 20.2244 18.1582 20.3741 18.6288C20.7818 19.9088 21.5994 22.476 22.1517 24.2102C22.2288 24.4524 22.1388 24.7167 21.9294 24.8625C21.7201 25.0084 21.44 25.0025 21.2373 24.8478C19.8355 23.7777 17.7876 22.2145 16.7153 21.3962C16.2934 21.0744 15.7069 21.0752 15.2863 21.3987C14.2242 22.2151 12.2042 23.7684 10.8142 24.8372C10.612 24.9927 10.3313 24.9997 10.1214 24.8539C9.91154 24.7083 9.82107 24.4441 9.89805 24.2015C10.4504 22.4624 11.2669 19.8906 11.6743 18.6072Z" fill="black"/>
</svg>
