<svg width="32" height="32" viewBox="0 0 32 32" fill="none" xmlns="http://www.w3.org/2000/svg">
<path d="M8.32579 32C8.0168 32 7.7331 31.896 7.5271 31.688C7.2949 31.48 7.1657 31.1944 7.1657 30.8559C7.1657 30.543 7.2696 30.2566 7.4756 30.023L11.8034 25.445C12.0365 25.2105 12.3193 25.081 12.6545 25.081C12.9635 25.081 13.2472 25.185 13.4532 25.393C13.6854 25.601 13.8146 25.913 13.8146 26.225C13.8146 26.537 13.7107 26.8244 13.5047 27.0579L9.17599 31.636C8.94379 31.8704 8.66099 32 8.32579 32Z" fill="url(#paint0_linear_25058_22704)"/>
<path d="M1.1592 25.1356C0.850198 25.1356 0.566497 25.006 0.334297 24.798C0.103 24.59 0 24.278 0 23.9651C0 23.6531 0.128298 23.3666 0.334297 23.133L4.40549 18.9966C4.61149 18.763 4.92049 18.659 5.23039 18.659C5.53939 18.659 5.82218 18.7886 6.05438 18.9966C6.28658 19.2046 6.38868 19.5166 6.38868 19.8295C6.38868 20.1415 6.26038 20.4271 6.05438 20.6616L1.98319 24.7989C1.77719 25.0069 1.4682 25.1356 1.1592 25.1356Z" fill="url(#paint1_linear_25058_22704)"/>
<path d="M1.56577 31.9348C1.25497 31.9348 0.970364 31.8043 0.73726 31.5954C0.504156 31.3865 0.400253 31.0736 0.400253 30.7607C0.400253 30.4478 0.504156 30.1614 0.73726 29.926L8.9212 21.5527C9.15431 21.3182 9.43891 21.2142 9.74972 21.2142C10.0605 21.2142 10.346 21.3447 10.5782 21.5527C11.0444 21.996 11.0444 22.7523 10.6044 23.2221L2.42049 31.5954C2.19246 31.8139 1.88535 31.9358 1.56577 31.9348Z" fill="url(#paint2_linear_25058_22704)"/>
<path d="M6.51246 14.8496C9.15341 12.5279 17.3111 5.98084 26.2197 5.06771C26.2791 5.06219 26.339 5.07022 26.3947 5.09117C26.4504 5.11211 26.5003 5.1454 26.5405 5.1884C26.5807 5.2314 26.6101 5.28293 26.6264 5.33893C26.6427 5.39492 26.6455 5.45385 26.6344 5.51105C26.3236 7.70223 24.588 16.571 16.8973 24.4745C16.8137 24.5605 16.709 24.6244 16.5931 24.6601C16.4771 24.6958 16.3538 24.7022 16.2347 24.6787C16.1156 24.6551 16.0045 24.6025 15.912 24.5256C15.8194 24.4487 15.7484 24.3502 15.7056 24.2392L13.9438 20.1706L11.7438 20.7435C11.6425 20.7677 11.5364 20.7651 11.4365 20.7361C11.3366 20.707 11.2464 20.6526 11.1752 20.5783C11.104 20.504 11.0543 20.4125 11.0314 20.3133C11.0084 20.2141 11.0129 20.1107 11.0444 20.0137L11.6398 17.953L6.71936 16.0756C6.22695 15.8923 6.09866 15.2145 6.51246 14.8496Z" fill="url(#paint3_linear_25058_22704)"/>
<path d="M31.1149 22.5443L22.3102 22.7011C21.9994 22.7011 21.7139 22.8572 21.5332 23.1445C20.6523 24.5785 17.7006 29.2738 15.3948 31.3345C14.8518 31.8308 14.0224 31.7003 13.6339 31.0736C13.5711 30.9707 13.5109 30.8664 13.4532 30.7607C12.9093 29.5356 12.4955 28.804 11.77 27.5524C11.1483 26.4833 9.90512 24.9699 9.17961 24.0576C8.29959 22.9876 6.43476 21.3182 5.47614 20.6404C3.68991 19.3359 2.03198 18.5797 0.841163 18.1628C-0.0135525 17.849 -0.246657 16.7278 0.426454 16.102C2.36899 14.2493 5.68395 11.1979 7.75568 10.1543C8.06649 9.9983 8.24719 9.65896 8.24719 9.31962L8.09179 0.946243C8.09179 0.26844 8.7658 -0.20135 9.38741 0.0859891C11.2513 0.89424 14.7479 2.61563 16.7419 4.85969C16.975 5.12059 17.3383 5.2246 17.6744 5.12059C19.176 4.67636 23.4496 3.47676 27.593 3.24231C28.1622 3.21587 28.6284 3.68566 28.5507 4.25945C28.3438 6.24262 27.8008 10.5192 26.8675 13.3371C26.7645 13.6235 26.816 13.9364 27.0229 14.1973C27.9291 15.3449 30.5972 18.8406 31.8657 21.1878C32.2289 21.788 31.8142 22.5451 31.1158 22.5451L31.1149 22.5443Z" fill="url(#paint4_linear_25058_22704)"/>
<path d="M12.8831 20.458L11.7428 20.7444C11.6415 20.7687 11.5353 20.7661 11.4353 20.737C11.3352 20.708 11.245 20.6534 11.1737 20.579C11.1025 20.5045 11.0529 20.4129 11.03 20.3136C11.0071 20.2142 11.0127 20.1107 11.0444 20.0137L11.6398 17.953L6.71936 16.0756C6.20075 15.8667 6.07155 15.1889 6.48626 14.824C9.1263 12.5015 17.2849 5.9544 26.1935 5.04126C26.2528 5.03589 26.3126 5.04403 26.3682 5.06505C26.4237 5.08606 26.4735 5.11936 26.5137 5.16234C26.5538 5.20532 26.5831 5.2568 26.5994 5.31272C26.6156 5.36865 26.6183 5.42749 26.6073 5.48461C26.2965 7.67579 24.5618 16.5436 16.8702 24.4472C16.7866 24.5332 16.682 24.5971 16.5661 24.6329C16.4503 24.6687 16.327 24.6751 16.2079 24.6517C16.0888 24.6283 15.9777 24.5757 15.8851 24.4989C15.7925 24.4221 15.7214 24.3237 15.6785 24.2128L13.9176 20.1433L12.8822 20.4571L12.8831 20.458Z" fill="#FFFFFC"/>
<path d="M19.6675 14.3013C21.1266 14.3013 22.3093 13.1106 22.3093 11.6412C22.3093 10.1711 21.1266 8.98027 19.6675 8.98027C18.2092 8.98027 17.0265 10.1711 17.0265 11.6412C17.0265 13.1106 18.2092 14.3013 19.6675 14.3013Z" fill="url(#paint5_linear_25058_22704)"/>
<defs>
<linearGradient id="paint0_linear_25058_22704" x1="-2.73081" y1="36.1947" x2="21.9246" y2="9.82043" gradientUnits="userSpaceOnUse">
<stop offset="0.188" stop-color="#25E2EA"/>
<stop offset="1" stop-color="#19A6D1"/>
</linearGradient>
<linearGradient id="paint1_linear_25058_22704" x1="-4.52553" y1="37.8" x2="27.6984" y2="4.06503" gradientUnits="userSpaceOnUse">
<stop offset="0.396" stop-color="#E55EC4"/>
<stop offset="1" stop-color="#8225D0"/>
</linearGradient>
<linearGradient id="paint2_linear_25058_22704" x1="21.3842" y1="11.6498" x2="7.10435" y2="22.9916" gradientUnits="userSpaceOnUse">
<stop stop-color="#A443FD"/>
<stop offset="1" stop-color="#A959F3"/>
</linearGradient>
<linearGradient id="paint3_linear_25058_22704" x1="-0.96912" y1="35.9443" x2="78.6313" y2="-55.8127" gradientUnits="userSpaceOnUse">
<stop offset="0.102" stop-color="white" stop-opacity="0.7"/>
<stop offset="0.481" stop-color="white" stop-opacity="0"/>
</linearGradient>
<linearGradient id="paint4_linear_25058_22704" x1="31.0605" y1="1.93237" x2="7.434" y2="21.5519" gradientUnits="userSpaceOnUse">
<stop offset="0.174" stop-color="#52BFCA"/>
<stop offset="0.916" stop-color="#7238DF"/>
</linearGradient>
<linearGradient id="paint5_linear_25058_22704" x1="68.9968" y1="-46.6775" x2="-43.9128" y2="86.4711" gradientUnits="userSpaceOnUse">
<stop stop-color="#52BFCA"/>
<stop offset="1" stop-color="#7238DF"/>
</linearGradient>
</defs>
</svg>
